# xmcd
#
# Track frame offsets: 
#        150
#        45454
#        50171
#        103774
#        111363
#        142833
#        151281
#        204177
#        207911
#        234253
#        236615
#        285980
#        295068
#
# Disc length: 4293 seconds
#
# Revision: 0
# Processed by: cddbd v1.5.2PL0 Copyright (c) Steve Scherf et al.
# Submitted via: ExactAudioCopy v0.90b4
#
DISCID=b110c30d
DTITLE=Isaac Scott - Posthumous Blues Live
DYEAR=2002
DGENRE=Blues
TTITLE0=Rocking Chair Blues
TTITLE1=Albert Collins Oil Change
TTITLE2=Listen To The Blues
TTITLE3=Blue Shoes
TTITLE4=Goin' Back To Wichita
TTITLE5=Gonna Get My Money
TTITLE6=Cold, Cold Feeling
TTITLE7=Albert Collins Van
TTITLE8=T.V. Mama
TTITLE9=A-1 Motel
TTITLE10=Cadillac Assembly Line
TTITLE11=Prell Concentrate
TTITLE12=Metro Man
EXTD=
EXTT0=
EXTT1=
EXTT2=
EXTT3=
EXTT4=
EXTT5=
EXTT6=
EXTT7=
EXTT8=
EXTT9=
EXTT10=
EXTT11=
EXTT12=
PLAYORDER=
